<svg width="1600" height="737" viewBox="0 0 1600 737" fill="none" xmlns="http://www.w3.org/2000/svg">
<g clip-path="url(#clip0_423_989)">
<path d="M549.6 736.4C525 736.4 501.1 736.4 476.7 736.4C476.7 663.2 476.7 590.3 476.7 517.1C469.1 517.1 462.1 517.1 454.5 517.1C454.5 590.2 454.5 663.1 454.5 736.3C430.1 736.3 406.2 736.3 381.9 736.3C381.9 639.1 381.9 541.9 381.9 444.3C469.5 444.3 557.1 444.3 644.9 444.3C644.9 541.6 644.9 638.8 644.9 736.3C620.9 736.3 597 736.3 572.2 736.3C572.2 663.2 572.2 590.2 572.2 516.7C565.1 516.7 558.7 516.6 552.5 516.8C551.5 516.8 550.1 518.6 549.7 519.8C549.2 521.3 549.6 523.1 549.6 524.8C549.6 592.9 549.6 661.1 549.6 729.2C549.6 731.6 549.6 733.9 549.6 736.4Z" fill="#F3F3F3"/>
<path d="M668 444.3C724 444.3 779.7 444.3 835.8 444.3C835.8 541.7 835.8 638.9 835.8 736.4C811.6 736.4 787.7 736.4 763.1 736.4C763.1 712.3 763.1 688.2 763.1 663.8C755.4 663.8 748.3 663.8 740.6 663.8C740.6 688 740.6 712.1 740.6 736.4C716.1 736.4 692.2 736.4 668 736.4C668 639 668 541.8 668 444.3ZM762.6 516.8C756.3 516.8 750.5 516.9 744.7 516.7C741.4 516.6 740.4 517.8 740.4 521C740.5 542.8 740.5 564.6 740.4 586.4C740.4 589.8 741.7 590.8 744.8 590.7C749.3 590.5 753.8 590.5 758.3 590.7C762.1 590.9 763.1 589.4 763 585.8C762.9 564.3 762.9 542.9 762.9 521.4C762.9 520.2 762.8 518.8 762.6 516.8Z" fill="#F3F3F3"/>
<path d="M285.9 663.5C279.7 663.5 274.1 663.5 268.4 663.5C266.9 663.5 265.5 663.7 263.6 663.8C263.6 688 263.6 712 263.6 736.3C239.3 736.3 215.4 736.3 191 736.3C191 639.2 191 542 191 444.5C246.6 444.5 302.3 444.5 358.5 444.5C358.5 541.7 358.5 639.1 358.5 736.5C334.3 736.5 310.4 736.5 285.8 736.5C285.9 712.2 285.9 688.1 285.9 663.5ZM263.4 590.3C271.3 590.3 278.3 590.3 285.5 590.3C285.5 565.7 285.5 541.5 285.5 516.8C279.8 516.8 274.5 517.1 269.3 516.7C264.9 516.4 263.2 517.6 263.4 522.4C263.7 536.2 263.5 550 263.5 563.8C263.4 572.5 263.4 581.1 263.4 590.3Z" fill="#F3F3F3"/>
<path d="M1503.5 736.4C1479.4 736.4 1455.6 736.4 1431.2 736.4C1431.2 712.4 1431.2 688.3 1431.2 663.9C1423.4 663.9 1416.2 663.9 1408.6 663.9C1408.6 688.1 1408.6 712 1408.6 736.3C1384.3 736.3 1360.4 736.3 1336.1 736.3C1336.1 639.2 1336.1 542 1336.1 444.4C1391.8 444.4 1447.5 444.4 1503.5 444.4C1503.5 541.8 1503.5 639 1503.5 736.4ZM1430.7 517.2C1423 517.2 1416 517.2 1408.9 517.2C1408.9 541.8 1408.9 566 1408.9 590.3C1416.4 590.3 1423.4 590.3 1430.7 590.3C1430.7 565.8 1430.7 541.7 1430.7 517.2Z" fill="#F3F3F3"/>
<path d="M1122.1 444.4C1122.1 541.8 1122.1 638.9 1122.1 736.3C1066.1 736.3 1010.2 736.3 954.1 736.3C954.1 639 954.1 541.8 954.1 444.3C978.2 444.3 1002.1 444.3 1026.7 444.3C1026.7 446.8 1026.7 449.1 1026.7 451.4C1026.7 519.9 1026.7 588.4 1026.7 656.8C1026.7 663.9 1026.7 663.9 1033.7 663.9C1037.5 663.9 1041.4 663.7 1045.2 663.9C1048.5 664.1 1049.7 662.7 1049.5 659.5C1049.4 658.2 1049.5 656.8 1049.5 655.5C1049.5 587.5 1049.5 519.5 1049.5 451.6C1049.5 449.3 1049.5 447 1049.5 444.3C1073.8 444.4 1097.7 444.4 1122.1 444.4Z" fill="#F3F3F3"/>
<path d="M1145 444.3C1169.1 444.3 1193 444.3 1217.5 444.3C1217.5 446.7 1217.5 448.8 1217.5 450.9C1217.5 495.4 1217.6 539.9 1217.4 584.4C1217.4 589.5 1218.8 591.3 1223.8 590.8C1227.6 590.4 1231.5 590.5 1235.3 590.8C1239.1 591.1 1240.1 589.5 1240.1 585.9C1240 560.6 1240 535.2 1240 509.9C1240 490.1 1240 470.2 1240 450.4C1240 448.4 1240.2 446.5 1240.3 444.3C1264.6 444.3 1288.5 444.3 1313.1 444.3C1313.1 446.3 1313.1 448 1313.1 449.8C1313.1 495 1313.1 540.1 1313 585.3C1313 588.3 1312.1 591.6 1310.6 594.1C1305 603.9 1299.2 613.6 1293.1 623.2C1291.3 626 1291.4 628.1 1293.1 630.8C1299.2 640.5 1305.1 650.4 1310.9 660.3C1312 662.1 1312.9 664.3 1312.9 666.3C1313 688.8 1313 711.3 1313 733.8C1313 734.6 1312.8 735.4 1312.7 736.4C1288.5 736.4 1264.6 736.4 1240 736.4C1240 712.3 1240 688.2 1240 663.8C1232.3 663.8 1225.2 663.8 1217.5 663.8C1217.5 688 1217.5 712.1 1217.5 736.4C1192.9 736.4 1169 736.4 1144.9 736.4C1145 639 1145 541.8 1145 444.3Z" fill="#F3F3F3"/>
<path d="M858.701 736.4C858.701 631.6 858.701 527.1 858.701 421.8C826.701 421.8 795.101 421.8 763.301 421.8C763.301 397.2 763.301 373.3 763.301 349.2C851.001 349.2 938.401 349.2 1026.3 349.2C1026.3 373.2 1026.3 397.1 1026.3 421.5C994.901 421.5 963.501 421.5 931.501 421.5C931.501 526.8 931.501 631.4 931.501 736.4C907.001 736.4 883.101 736.4 858.701 736.4Z" fill="#F3F3F3"/>
<path d="M0 444.3C56 444.3 111.7 444.3 167.9 444.3C167.9 517.1 167.9 589.8 167.9 663.2C136.4 663.2 104.9 663.2 72.7 663.2C72.7 688 72.7 712 72.7 736.4C48.1 736.4 24.2 736.4 0 736.4C0 639 0 541.8 0 444.3ZM94.9 516.8C88.1 516.8 81.8 516.6 75.5 517C74.5 517.1 72.7 519.2 72.7 520.4C72.5 542.5 72.6 564.7 72.5 586.8C72.5 589.6 73.5 590.7 76.3 590.7C80.6 590.6 85 590.4 89.3 590.8C93.7 591.1 95.4 589.8 95.3 585C95.1 564.2 95.2 543.4 95.2 522.6C95.2 520.8 95 519 94.9 516.8Z" fill="#F3F3F3"/>
<path d="M1599.1 736.4C1574.9 736.4 1551 736.4 1526.8 736.4C1526.8 638.9 1526.8 541.7 1526.8 444.3C1551 444.3 1574.9 444.3 1599.1 444.3C1599.1 541.7 1599.1 638.8 1599.1 736.4Z" fill="#F3F3F3"/>
<path d="M0 421.9V348L144.1 294.5V311.5L227.6 344V378H235.1V294.5H245.1V227.5L287.1 210L308.1 216V176.5H318.6V75.5H329.6V64.5H338.1V53.5H348.1V70.7H355.6V76H364.1V53.5H372.6V61.5H381.9V76.5H390.1V187H415.6V282L425.1 291.5V344H438.1V299.5H467.1V182L492.1 174.5V87H507.1V12L537.1 0L578.1 6.5V77.5L595.1 80V88L606.6 89V165L627.6 175V315H641.1V288.5H676.6V309.5H692.1V281.5L704.1 260.5H766.1L786.1 283.5H799.5V216.5L807.1 211V111.5L819.6 107.5V81H824.6V86.8H828.4V45H837.6V84.2H848.1V93.5H865.4V52H877.4V88.2H886.6V105L898.8 108.5V195.7L926.6 186.3H976.6V228.4H1036.6V131L1096.6 108.3L1213.6 115.3V241.8H1234.8V220L1262.1 212.6L1288.5 219.5V233.8H1306.7V337.3H1317.6V288.8L1342.8 251.8V171.3L1434.6 147.8L1480.3 153.3V356.3H1500.1L1519.1 318H1564.6L1599.6 366V421.9H1048.6V327H740.4V421.9H0Z" fill="#949496"/>
</g>
<defs>
<clipPath id="clip0_423_989">
<rect width="1599.6" height="736.5" fill="white"/>
</clipPath>
</defs>
</svg>
